<?xml version="1.0" encoding="utf-8"?>
<!-- Generator: Adobe Illustrator 23.0.3, SVG Export Plug-In . SVG Version: 6.00 Build 0)  -->
<svg version="1.1" id="Capa_1" xmlns="http://www.w3.org/2000/svg" xmlns:xlink="http://www.w3.org/1999/xlink" x="0px" y="0px"
	 viewBox="0 0 381 216.7" style="enable-background:new 0 0 381 216.7;" xml:space="preserve">
<style type="text/css">
	.st0{fill:#47587A;}
	.st1{fill:#334053;}
</style>
<g>
	<path class="st0" d="M334.5,152.6c3.1,0,5.6-2.5,5.6-5.6V69.7c0-3.1-2.5-5.6-5.6-5.6H46.5c-3.1,0-5.6,2.5-5.6,5.6V82v12.2v24.9
		v12.2V147c0,3.1,2.5,5.6,5.6,5.6 M330.1,142.6h-279v-68h279V142.6z"/>
	<g>
		<path class="st1" d="M67.1,86.3h19.3c2.9,0,5.3,0.6,7.3,1.8c2,1.2,3.5,2.8,4.4,4.9c1,2,1.5,4.3,1.5,6.9s-0.6,4.9-1.7,6.9
			c-1.1,2-2.7,3.6-4.7,4.8c-2,1.2-4.4,1.8-7.1,1.8H79v8.8h-12V86.3z M83.4,104c1.3,0,2.3-0.4,3-1.1c0.7-0.7,1.1-1.8,1.1-3.1
			c0-1.4-0.3-2.4-0.9-3.2c-0.6-0.7-1.6-1.1-2.9-1.1H79v8.5H83.4z"/>
		<path class="st1" d="M100.2,86.3h19.3c4.3,0,7.6,1.2,9.8,3.6c2.2,2.4,3.3,5.6,3.3,9.5c0,2.3-0.6,4.4-1.8,6.3
			c-1.2,1.8-2.7,3.3-4.7,4.5c0.7,0.6,1.3,1.4,1.8,2.4l4.2,9.6h-12.5l-3.7-8.3c-0.3-0.6-0.5-0.9-0.9-1.2c-0.3-0.2-0.8-0.3-1.4-0.3
			h-1.7v9.8h-12V86.3z M116.5,103.1c1.3,0,2.3-0.3,3-0.9c0.7-0.6,1-1.6,1-2.8c0-2.5-1.2-3.8-3.7-3.8h-4.7v7.5H116.5z"/>
		<path class="st1" d="M134.4,86.3h27.9v8.8h-15.9v4.6h13.8v9.1h-13.8v4.5h15.9v8.8h-27.9V86.3z"/>
		<path class="st1" d="M162.5,86.3h12.5l7.5,21.8l7.6-21.8h12.5l-13.8,35.8h-12.5L162.5,86.3z"/>
		<path class="st1" d="M200.8,86.3h27.9v8.8h-15.9v4.6h13.8v9.1h-13.8v4.5h15.9v8.8h-27.9V86.3z"/>
		<path class="st1" d="M230.1,86.3h10.1l11.8,16.5V86.3h12v35.8h-10.2L242,105.7v16.5h-12V86.3z"/>
		<path class="st1" d="M266.7,86.3h12v35.8h-12V86.3z"/>
		<path class="st1" d="M281.4,86.3h19.3c4.3,0,7.6,1.2,9.8,3.6c2.2,2.4,3.3,5.6,3.3,9.5c0,2.3-0.6,4.4-1.8,6.3
			c-1.2,1.8-2.7,3.3-4.7,4.5c0.7,0.6,1.3,1.4,1.8,2.4l4.2,9.6H301l-3.7-8.3c-0.3-0.6-0.5-0.9-0.9-1.2c-0.3-0.2-0.8-0.3-1.4-0.3h-1.7
			v9.8h-12V86.3z M297.7,103.1c1.3,0,2.3-0.3,3-0.9c0.7-0.6,1-1.6,1-2.8c0-2.5-1.2-3.8-3.7-3.8h-4.7v7.5H297.7z"/>
	</g>
	<rect x="65.5" y="130.5" class="st1" width="250" height="3.1"/>
</g>
</svg>
