<?xml version="1.0" encoding="utf-8"?>
<!-- Generator: Adobe Illustrator 23.0.3, SVG Export Plug-In . SVG Version: 6.00 Build 0)  -->
<svg version="1.1" id="Capa_1" xmlns="http://www.w3.org/2000/svg" xmlns:xlink="http://www.w3.org/1999/xlink" x="0px" y="0px"
	 viewBox="0 0 425 139.1" style="enable-background:new 0 0 425 139.1;" xml:space="preserve">
<style type="text/css">
	.st0{fill:#FFFFFF;}
</style>
<g>
	<path class="st0" d="M101,15.6H9.5c-3.8,0-6.9,3.1-6.9,6.9v15.3V53v30.9v15.2v19.4c0,3.8,3.1,6.9,6.9,6.9H70h11.3H101
		c3.8,0,6.9-3.1,6.9-6.9V22.6C107.9,18.7,104.8,15.6,101,15.6z M15.2,113.1V99.2h36.6c0.4,0,0.8,0,1.2,0l7.5,13.9H15.2z M63.2,79.9
		c-2.8,2.5-6.9,3.8-12.2,3.8H15.2v-30H51c5.5,0,9.6,1.3,12.3,4c2.7,2.7,4.1,6.4,4.1,11.2C67.4,73.7,66,77.4,63.2,79.9z M95.5,113.1
		H78.7l-9.5-16.7c3.3-1.2,6.2-2.8,8.7-4.9c6.3-5.1,9.5-12.6,9.5-22.5c0-10-3.2-17.6-9.5-22.9c-6.3-5.2-15.1-7.9-26.2-7.9H15.2v-9.6
		h80.4V113.1z"/>
	<path class="st0" d="M143.3,123.5h-12.1v-8.9h11c0.2,0,0.4-0.1,0.6-0.2c0.1-0.1,0.2-0.3,0.2-0.5v-0.5c0-0.2-0.1-0.4-0.2-0.6
		c-0.1-0.1-0.3-0.2-0.6-0.2h-11V104H143c0.2,0,0.4-0.1,0.6-0.2c0.1-0.1,0.2-0.3,0.2-0.5v-0.5c0-0.2-0.1-0.4-0.2-0.6
		c-0.1-0.1-0.3-0.2-0.6-0.2h-13.2c-0.2,0-0.4,0.1-0.5,0.2c-0.1,0.1-0.2,0.3-0.2,0.6v22.1c0,0.2,0.1,0.4,0.2,0.5
		c0.1,0.1,0.3,0.2,0.5,0.2h13.4c0.2,0,0.4-0.1,0.6-0.2c0.1-0.1,0.2-0.3,0.2-0.5v-0.5c0-0.2-0.1-0.4-0.2-0.6
		C143.7,123.6,143.5,123.5,143.3,123.5z"/>
	<path class="st0" d="M166.3,101.9h-0.8c-0.3,0-0.6,0.1-0.7,0.4l-7.7,14.9l-7.7-14.9c-0.1-0.3-0.4-0.4-0.7-0.4h-0.8
		c-0.2,0-0.4,0.1-0.6,0.2c-0.1,0.1-0.2,0.3-0.2,0.6v22.1c0,0.2,0.1,0.4,0.2,0.5c0.1,0.1,0.3,0.2,0.6,0.2h0.6c0.2,0,0.4-0.1,0.5-0.2
		c0.1-0.1,0.2-0.3,0.2-0.5v-18.3l6.4,12.7c0.2,0.5,0.6,0.7,1,0.7h0.7c0.5,0,0.8-0.2,1-0.7l6.4-12.7v18.3c0,0.2,0.1,0.4,0.2,0.5
		c0.1,0.1,0.3,0.2,0.5,0.2h0.6c0.2,0,0.4-0.1,0.6-0.2c0.1-0.1,0.2-0.3,0.2-0.5v-22.1c0-0.2-0.1-0.4-0.2-0.6
		C166.7,102,166.5,101.9,166.3,101.9z"/>
	<path class="st0" d="M180.3,101.9h-8.2c-0.2,0-0.4,0.1-0.5,0.2c-0.1,0.1-0.2,0.3-0.2,0.6v22.1c0,0.2,0.1,0.4,0.2,0.5
		c0.1,0.1,0.3,0.2,0.5,0.2h0.6c0.2,0,0.4-0.1,0.6-0.2c0.1-0.1,0.2-0.3,0.2-0.5v-8.9h6.8c2.4,0,4.3-0.6,5.7-1.8
		c1.4-1.2,2.1-2.9,2.1-5.2c0-2.3-0.7-4-2.1-5.2C184.6,102.5,182.7,101.9,180.3,101.9z M184.5,112.6c-1,0.8-2.4,1.3-4.4,1.3h-6.7V104
		h6.7c1.9,0,3.4,0.4,4.4,1.3c1,0.8,1.5,2.1,1.5,3.7C186,110.5,185.5,111.8,184.5,112.6z"/>
	<path class="st0" d="M201.8,115.3c1.6-0.4,2.9-1.1,3.8-2.2c0.9-1.1,1.3-2.5,1.3-4.3c0-2.3-0.7-4-2.1-5.1c-1.4-1.1-3.3-1.7-5.7-1.7
		h-7.9c-0.2,0-0.4,0.1-0.5,0.2c-0.1,0.1-0.2,0.3-0.2,0.6v22.1c0,0.2,0.1,0.4,0.2,0.5c0.1,0.1,0.3,0.2,0.5,0.2h0.6
		c0.2,0,0.4-0.1,0.6-0.2c0.1-0.1,0.2-0.3,0.2-0.5v-9.3h7l5.4,9.1c0.2,0.3,0.4,0.5,0.5,0.7c0.2,0.1,0.4,0.2,0.8,0.2h0.4
		c0.2,0,0.3-0.1,0.5-0.2c0.1-0.1,0.2-0.3,0.2-0.5c0-0.1,0-0.2-0.1-0.4L201.8,115.3z M199,113.5h-6.3V104h6.3c2,0,3.4,0.4,4.4,1.2
		c1,0.8,1.4,2,1.4,3.6c0,1.6-0.5,2.8-1.4,3.6C202.4,113.1,201,113.5,199,113.5z"/>
	<path class="st0" d="M224.3,123.5h-12.1v-8.9h11c0.2,0,0.4-0.1,0.6-0.2c0.1-0.1,0.2-0.3,0.2-0.5v-0.5c0-0.2-0.1-0.4-0.2-0.6
		c-0.1-0.1-0.3-0.2-0.6-0.2h-11V104h11.8c0.2,0,0.4-0.1,0.6-0.2c0.1-0.1,0.2-0.3,0.2-0.5v-0.5c0-0.2-0.1-0.4-0.2-0.6
		c-0.1-0.1-0.3-0.2-0.6-0.2h-13.2c-0.2,0-0.4,0.1-0.5,0.2c-0.1,0.1-0.2,0.3-0.2,0.6v22.1c0,0.2,0.1,0.4,0.2,0.5
		c0.1,0.1,0.3,0.2,0.5,0.2h13.4c0.2,0,0.4-0.1,0.6-0.2c0.1-0.1,0.2-0.3,0.2-0.5v-0.5c0-0.2-0.1-0.4-0.2-0.6
		C224.8,123.6,224.6,123.5,224.3,123.5z"/>
	<path class="st0" d="M244.1,101.9h-0.6c-0.2,0-0.4,0.1-0.5,0.2c-0.1,0.1-0.2,0.3-0.2,0.6v18.7l-12.5-19c-0.2-0.3-0.4-0.4-0.7-0.4
		h-0.7c-0.2,0-0.4,0.1-0.5,0.2c-0.1,0.1-0.2,0.3-0.2,0.6v22.1c0,0.2,0.1,0.4,0.2,0.5c0.1,0.1,0.3,0.2,0.5,0.2h0.6
		c0.2,0,0.4-0.1,0.6-0.2c0.1-0.1,0.2-0.3,0.2-0.5v-18.6l12.4,19c0.2,0.3,0.4,0.4,0.7,0.4h0.7c0.2,0,0.4-0.1,0.5-0.2
		c0.1-0.1,0.2-0.3,0.2-0.6v-22.1c0-0.2-0.1-0.4-0.2-0.6C244.5,102,244.3,101.9,244.1,101.9z"/>
	<path class="st0" d="M265.6,106c-0.6-1.3-1.5-2.3-2.9-3c-1.4-0.7-3.2-1-5.6-1h-7.2c-0.2,0-0.4,0.1-0.5,0.2
		c-0.1,0.1-0.2,0.3-0.2,0.6v22.1c0,0.2,0.1,0.4,0.2,0.5s0.3,0.2,0.5,0.2h7.4c2.3,0,4.1-0.3,5.4-1c1.3-0.7,2.3-1.6,2.9-3
		c0.6-1.3,0.9-3.1,0.9-5.2c0-0.7,0-1.6,0-2.7c0-1.1,0-2,0-2.7C266.4,109,266.1,107.3,265.6,106z M264.4,116.2c0,1.8-0.3,3.2-0.8,4.3
		c-0.5,1-1.2,1.8-2.2,2.3c-1,0.5-2.5,0.7-4.3,0.7h-5.8V104h5.6c2.6,0,4.5,0.6,5.7,1.7c1.1,1.2,1.7,3,1.8,5.5c0,0.7,0,1.5,0,2.5
		C264.4,114.7,264.4,115.6,264.4,116.2z"/>
	<path class="st0" d="M271.4,101.9h-0.6c-0.2,0-0.4,0.1-0.5,0.2c-0.1,0.1-0.2,0.3-0.2,0.5v22.1c0,0.2,0.1,0.4,0.2,0.5
		s0.3,0.2,0.5,0.2h0.6c0.2,0,0.4-0.1,0.5-0.2c0.1-0.1,0.2-0.3,0.2-0.5v-22.1c0-0.2-0.1-0.4-0.2-0.5
		C271.8,102,271.6,101.9,271.4,101.9z"/>
	<path class="st0" d="M295.7,101.9h-0.8c-0.3,0-0.6,0.1-0.7,0.4l-7.7,14.9l-7.7-14.9c-0.1-0.3-0.4-0.4-0.7-0.4h-0.8
		c-0.2,0-0.4,0.1-0.6,0.2c-0.1,0.1-0.2,0.3-0.2,0.6v22.1c0,0.2,0.1,0.4,0.2,0.5c0.1,0.1,0.3,0.2,0.6,0.2h0.6c0.2,0,0.4-0.1,0.5-0.2
		c0.1-0.1,0.2-0.3,0.2-0.5v-18.3l6.4,12.7c0.2,0.5,0.6,0.7,1,0.7h0.7c0.5,0,0.8-0.2,1-0.7l6.4-12.7v18.3c0,0.2,0.1,0.4,0.2,0.5
		c0.1,0.1,0.3,0.2,0.5,0.2h0.6c0.2,0,0.4-0.1,0.6-0.2s0.2-0.3,0.2-0.5v-22.1c0-0.2-0.1-0.4-0.2-0.6
		C296.1,102,295.9,101.9,295.7,101.9z"/>
	<path class="st0" d="M302.1,101.9h-0.6c-0.2,0-0.4,0.1-0.5,0.2c-0.1,0.1-0.2,0.3-0.2,0.5v22.1c0,0.2,0.1,0.4,0.2,0.5
		s0.3,0.2,0.5,0.2h0.6c0.2,0,0.4-0.1,0.5-0.2c0.1-0.1,0.2-0.3,0.2-0.5v-22.1c0-0.2-0.1-0.4-0.2-0.5
		C302.5,102,302.4,101.9,302.1,101.9z"/>
	<path class="st0" d="M321.4,123.5h-12.1v-8.9h11c0.2,0,0.4-0.1,0.6-0.2c0.1-0.1,0.2-0.3,0.2-0.5v-0.5c0-0.2-0.1-0.4-0.2-0.6
		c-0.1-0.1-0.3-0.2-0.6-0.2h-11V104h11.8c0.2,0,0.4-0.1,0.6-0.2c0.1-0.1,0.2-0.3,0.2-0.5v-0.5c0-0.2-0.1-0.4-0.2-0.6
		c-0.1-0.1-0.3-0.2-0.6-0.2h-13.2c-0.2,0-0.4,0.1-0.5,0.2c-0.1,0.1-0.2,0.3-0.2,0.6v22.1c0,0.2,0.1,0.4,0.2,0.5s0.3,0.2,0.5,0.2
		h13.4c0.2,0,0.4-0.1,0.6-0.2c0.1-0.1,0.2-0.3,0.2-0.5v-0.5c0-0.2-0.1-0.4-0.2-0.6C321.8,123.6,321.6,123.5,321.4,123.5z"/>
	<path class="st0" d="M341.1,101.9h-0.6c-0.2,0-0.4,0.1-0.5,0.2c-0.1,0.1-0.2,0.3-0.2,0.6v18.7l-12.5-19c-0.2-0.3-0.4-0.4-0.7-0.4
		h-0.7c-0.2,0-0.4,0.1-0.5,0.2c-0.1,0.1-0.2,0.3-0.2,0.6v22.1c0,0.2,0.1,0.4,0.2,0.5c0.1,0.1,0.3,0.2,0.5,0.2h0.6
		c0.2,0,0.4-0.1,0.6-0.2s0.2-0.3,0.2-0.5v-18.6l12.4,19c0.2,0.3,0.4,0.4,0.7,0.4h0.7c0.2,0,0.4-0.1,0.5-0.2c0.1-0.1,0.2-0.3,0.2-0.6
		v-22.1c0-0.2-0.1-0.4-0.2-0.6C341.6,102,341.4,101.9,341.1,101.9z"/>
	<path class="st0" d="M360.2,101.9h-15.5c-0.2,0-0.4,0.1-0.5,0.2c-0.1,0.1-0.2,0.3-0.2,0.6v0.5c0,0.2,0.1,0.4,0.2,0.5
		c0.1,0.1,0.3,0.2,0.5,0.2h6.7v20.9c0,0.2,0.1,0.4,0.2,0.5c0.1,0.1,0.3,0.2,0.5,0.2h0.6c0.2,0,0.4-0.1,0.6-0.2s0.2-0.3,0.2-0.5V104
		h6.7c0.2,0,0.4-0.1,0.6-0.2c0.1-0.1,0.2-0.3,0.2-0.5v-0.5c0-0.2-0.1-0.4-0.2-0.6C360.6,102,360.4,101.9,360.2,101.9z"/>
	<path class="st0" d="M376.9,104c-1.6-1.6-3.7-2.4-6.4-2.4c-2.7,0-4.8,0.8-6.4,2.4c-1.6,1.6-2.4,3.9-2.5,7c0,0.7,0,1.6,0,2.8
		c0,1.2,0,2.2,0,2.8c0.2,6.2,3.1,9.3,8.9,9.3c5.8,0,8.8-3.1,8.9-9.3c0-1.3,0.1-2.3,0.1-2.8c0-0.5,0-1.5-0.1-2.8
		C379.3,107.8,378.4,105.5,376.9,104z M377.2,116.4c-0.1,2.5-0.7,4.4-1.9,5.6c-1.2,1.2-2.8,1.8-4.8,1.8c-2,0-3.6-0.6-4.8-1.8
		c-1.2-1.2-1.9-3.1-1.9-5.6c0-0.7,0-1.6,0-2.7s0-2,0-2.7c0.1-2.5,0.7-4.4,2-5.6c1.2-1.2,2.8-1.8,4.8-1.8c2,0,3.6,0.6,4.8,1.8
		c1.2,1.2,1.9,3.1,2,5.6c0,1.4,0.1,2.2,0.1,2.7C377.3,114.2,377.3,115.1,377.2,116.4z"/>
	<path class="st0" d="M397.5,116.5c-0.5-0.8-1.3-1.4-2.3-2c-1-0.5-2.5-1.1-4.3-1.7c-1.8-0.6-3.2-1.1-4.1-1.5
		c-0.9-0.4-1.6-0.9-2.1-1.5c-0.5-0.6-0.7-1.3-0.7-2.2c0-1.4,0.5-2.4,1.5-3c1-0.7,2.4-1,4.1-1c1.6,0,3,0.4,4,1.1
		c1.1,0.7,1.7,1.7,1.8,2.8c0,0.2,0.1,0.4,0.3,0.5c0.2,0.1,0.3,0.2,0.5,0.2h0.7c0.2,0,0.4-0.1,0.5-0.2c0.1-0.1,0.2-0.3,0.2-0.5
		c0-0.9-0.4-1.8-1-2.8c-0.6-0.9-1.5-1.7-2.7-2.3c-1.2-0.6-2.6-0.9-4.3-0.9c-1.6,0-3,0.3-4.2,0.8c-1.2,0.5-2.1,1.3-2.7,2.2
		c-0.6,0.9-0.9,2-0.9,3.1c0,1.2,0.2,2.2,0.7,3c0.5,0.8,1.2,1.5,2.2,2c1,0.5,2.3,1.1,4.1,1.7c2,0.6,3.4,1.2,4.4,1.6
		c1,0.4,1.7,0.9,2.2,1.5c0.5,0.6,0.8,1.3,0.8,2.1c0,1.4-0.5,2.5-1.6,3.3c-1,0.8-2.6,1.2-4.8,1.2c-2,0-3.6-0.4-4.7-1.2
		c-1.1-0.8-1.7-1.8-1.9-2.8c-0.1-0.5-0.3-0.7-0.7-0.7h-0.7c-0.2,0-0.4,0.1-0.5,0.2c-0.1,0.1-0.2,0.3-0.2,0.5c0,1.1,0.4,2,1.1,3
		c0.7,0.9,1.7,1.7,3,2.2c1.3,0.6,2.8,0.9,4.6,0.9c2.6,0,4.7-0.6,6.2-1.7c1.5-1.1,2.3-2.7,2.3-4.7
		C398.3,118.2,398.1,117.2,397.5,116.5z"/>
	<path class="st0" d="M139.6,78.9V58.1h11.9l11.1,20.6c0.4,0.7,0.9,1.3,1.4,1.7c0.5,0.4,1.2,0.7,2.2,0.7h8c0.5,0,0.9-0.2,1.3-0.5
		c0.4-0.3,0.6-0.8,0.6-1.3c0-0.3-0.1-0.6-0.3-1l-12.6-22.1c3.6-1.3,6.5-3.3,8.5-6.2c2-2.9,3-6.4,3-10.6c0-6.1-2-10.8-6-14.1
		c-4-3.3-9.6-4.9-16.7-4.9h-22.5c-0.6,0-1.1,0.2-1.5,0.6c-0.4,0.4-0.6,0.9-0.6,1.6v56.5c0,0.6,0.2,1.1,0.6,1.5
		c0.4,0.4,0.9,0.6,1.5,0.6h8c0.6,0,1.2-0.2,1.6-0.6C139.4,80,139.6,79.5,139.6,78.9z M139.6,29.9h12.1c3.5,0,6.1,0.8,7.8,2.4
		c1.7,1.6,2.6,3.9,2.6,6.8c0,3-0.9,5.2-2.6,6.7c-1.7,1.5-4.3,2.3-7.8,2.3h-12.1V29.9z"/>
	<path class="st0" d="M229.6,85v-0.2c0-0.2-0.1-0.5-0.3-0.9l-6.1-8.7c3.9-3.8,6-9.5,6.2-17.2c0.1-3.4,0.2-5.8,0.2-7.4
		c0-1.6-0.1-4.1-0.2-7.5c-0.2-7.7-2.6-13.6-7.1-17.7c-4.5-4.1-10.6-6.2-18.3-6.2c-7.6,0-13.7,2.1-18.3,6.2c-4.5,4.1-6.9,10-7.2,17.7
		c-0.1,1.7-0.1,4.2-0.1,7.5c0,3.2,0,5.7,0.1,7.4c0.2,7.9,2.6,13.8,7,17.8c4.4,4,10.6,6,18.4,6c3.5,0,6.6-0.5,9.2-1.6l3.2,4.3
		c0.4,0.6,0.9,1.1,1.3,1.4c0.5,0.4,1.1,0.6,1.9,0.6h8.2c0.5,0,0.9-0.2,1.2-0.5C229.4,85.8,229.6,85.4,229.6,85z M194.9,68.3
		c-2.3-2.3-3.5-5.9-3.6-10.7c-0.1-1.7-0.1-4.1-0.1-7c0-3,0-5.4,0.1-7c0.2-4.7,1.4-8.3,3.7-10.6c2.3-2.3,5.3-3.5,9.2-3.5
		c3.8,0,6.9,1.2,9.2,3.5c2.3,2.3,3.5,5.9,3.6,10.6c0.1,3.4,0.2,5.7,0.2,7c0,1.2-0.1,3.6-0.2,7c-0.1,3.1-0.6,5.7-1.6,7.7
		c-0.2-0.3-0.5-0.5-0.8-0.7c-0.5-0.4-1.1-0.6-1.9-0.6h-8.2c-0.5,0-0.9,0.2-1.2,0.5c-0.3,0.3-0.5,0.7-0.5,1.2v0.2
		c0,0.2,0.1,0.5,0.3,0.9l3.4,4.8c-0.7,0.1-1.5,0.2-2.3,0.2C200.2,71.8,197.1,70.6,194.9,68.3z"/>
</g>
</svg>
