<?xml version="1.0" encoding="utf-8"?>
<!-- Generator: Adobe Illustrator 23.0.3, SVG Export Plug-In . SVG Version: 6.00 Build 0)  -->
<svg version="1.1" id="Capa_1" xmlns="http://www.w3.org/2000/svg" xmlns:xlink="http://www.w3.org/1999/xlink" x="0px" y="0px"
	 viewBox="0 0 381 216.7" style="enable-background:new 0 0 381 216.7;" xml:space="preserve">
<style type="text/css">
	.st0{fill:#A73E42;}
	.st1{font-family:'Homeday';}
	.st2{font-size:31.0213px;}
	.st3{fill:#C54747;}
	.st4{font-family:'Rubik-Medium';}
	.st5{font-size:105.6994px;}
</style>
<g>
	<path class="st0" d="M157.7,58.5h-89c-3.7,0-6.8,3-6.8,6.8v14.9v14.7V125v14.7v18.9c0,3.7,3,6.8,6.8,6.8h58.9h11h19.1
		c3.7,0,6.8-3,6.8-6.8V65.3C164.5,61.6,161.5,58.5,157.7,58.5z M121,121.1c-2.7,2.5-6.7,3.7-11.9,3.7H74.2V95.6h34.9
		c5.4,0,9.4,1.3,12,3.9c2.6,2.6,4,6.2,4,10.9C125.1,115.1,123.7,118.6,121,121.1z M74.2,139.8h35.6c0.4,0,0.7,0,1.1,0l7.3,13.5h-44
		V139.8z M152.4,153.3h-16.4l-9.2-16.2c3.2-1.2,6-2.8,8.4-4.7c6.2-5,9.2-12.3,9.2-21.9c0-9.7-3.1-17.2-9.2-22.2
		c-6.2-5.1-14.7-7.6-25.5-7.6H74.2v-9.3h78.2V153.3z"/>
	<text transform="matrix(1 0 0 1 178.4525 160.3088)" class="st0 st1 st2">Kits escolares</text>
	<path class="st3" d="M154.7,54.8h-89c-3.7,0-6.8,3-6.8,6.8v14.9v14.7v30.1V136v18.9c0,3.7,3,6.8,6.8,6.8h58.9h11h19.1
		c3.7,0,6.8-3,6.8-6.8V61.5C161.5,57.8,158.5,54.8,154.7,54.8z M118,117.4c-2.7,2.5-6.7,3.7-11.9,3.7H71.2V91.8h34.9
		c5.4,0,9.4,1.3,12,3.9c2.6,2.6,4,6.2,4,10.9C122.1,111.3,120.7,114.9,118,117.4z M71.2,136.1h35.6c0.4,0,0.7,0,1.1,0l7.3,13.5h-44
		V136.1z M149.4,149.6h-16.4l-9.2-16.2c3.2-1.2,6-2.8,8.4-4.7c6.2-5,9.2-12.3,9.2-21.9c0-9.7-3.1-17.2-9.2-22.2
		c-6.2-5.1-14.7-7.6-25.5-7.6H71.2v-9.3h78.2V149.6z"/>
	<g>
		<text transform="matrix(1 0 0 1 172.1982 131.3239)" class="st3 st4 st5">R</text>
		<text transform="matrix(1 0 0 1 237.1435 131.3239)" class="st3 st4 st5">Q</text>
		<g>
			<path class="st3" d="M280,124.6l-7.4-10.6c-0.2-0.4-0.3-0.8-0.3-1.1v-0.2c0-0.6,0.2-1,0.6-1.4c0.4-0.4,0.9-0.6,1.5-0.6h9.9
				c0.9,0,1.7,0.2,2.3,0.7c0.6,0.5,1.1,1,1.6,1.7l3.9,5.3"/>
		</g>
	</g>
</g>
</svg>
