<?xml version="1.0" encoding="utf-8"?>
<!-- Generator: Adobe Illustrator 23.0.3, SVG Export Plug-In . SVG Version: 6.00 Build 0)  -->
<svg version="1.1" id="Capa_1" xmlns="http://www.w3.org/2000/svg" xmlns:xlink="http://www.w3.org/1999/xlink" x="0px" y="0px"
	 viewBox="0 0 381 216.7" style="enable-background:new 0 0 381 216.7;" xml:space="preserve">
<style type="text/css">
	.st0{fill:#778C59;}
	.st1{enable-background:new    ;}
	.st2{fill:#98B56E;}
</style>
<g>
	<path class="st0" d="M162.6,57.3h-92c-3.8,0-7,3.1-7,7v15.4v15.2V126v15.2v19.5c0,3.8,3.1,7,7,7h60.8h11.4h19.8c3.8,0,7-3.1,7-7
		V64.3C169.5,60.5,166.4,57.3,162.6,57.3z M124.6,122c-2.8,2.5-6.9,3.8-12.3,3.8h-36V95.6h36.1c5.5,0,9.7,1.3,12.4,4
		c2.7,2.7,4.1,6.4,4.1,11.2C128.8,115.8,127.4,119.5,124.6,122z M76.3,141.3H113c0.4,0,0.8,0,1.2,0l7.6,14H76.3V141.3z M157.1,155.3
		h-16.9l-9.5-16.8c3.3-1.2,6.2-2.8,8.7-4.9c6.4-5.1,9.6-12.7,9.6-22.6c0-10.1-3.2-17.7-9.6-23c-6.4-5.3-15.1-7.9-26.3-7.9H76.3v-9.6
		h80.8V155.3z"/>
	<g>
		<g class="st1">
			<path class="st2" d="M186.8,131.3c-0.5-0.5-0.8-1.1-0.8-1.9V58.4c0-0.8,0.2-1.5,0.7-2c0.5-0.5,1.1-0.8,1.9-0.8h28.3
				c9,0,16,2.1,21,6.2c5.1,4.2,7.6,10,7.6,17.7c0,5.3-1.3,9.8-3.8,13.4c-2.5,3.6-6.1,6.2-10.7,7.8l15.8,27.9
				c0.2,0.4,0.3,0.8,0.3,1.2c0,0.7-0.2,1.2-0.7,1.6c-0.5,0.4-1,0.7-1.6,0.7h-10c-1.2,0-2.1-0.3-2.7-0.8s-1.2-1.3-1.7-2.1l-14-25.9
				h-15v26.2c0,0.7-0.3,1.3-0.8,1.9c-0.5,0.5-1.2,0.8-2,0.8h-10.1C187.9,132.1,187.3,131.8,186.8,131.3z M216.6,90.8
				c4.4,0,7.6-1,9.8-2.9c2.2-1.9,3.3-4.8,3.3-8.5c0-3.7-1.1-6.6-3.3-8.6s-5.5-3-9.8-3h-15.2v22.9H216.6z"/>
		</g>
		<g class="st1">
			<path class="st2" d="M299.8,138.5c-0.6-0.5-1.2-1.1-1.7-1.8l-4-5.5c-3.3,1.3-7.1,2-11.6,2c-9.9,0-17.6-2.5-23.2-7.5
				c-5.6-5-8.5-12.5-8.8-22.4c-0.1-2.1-0.1-5.2-0.1-9.3c0-4.2,0-7.3,0.1-9.4c0.3-9.7,3.3-17.1,9-22.3c5.7-5.2,13.4-7.8,23-7.8
				c9.7,0,17.4,2.6,23,7.8c5.7,5.2,8.7,12.6,9,22.3c0.1,4.2,0.2,7.4,0.2,9.4c0,2-0.1,5.1-0.2,9.3c-0.3,9.6-2.9,16.8-7.9,21.6
				l7.6,10.9c0.2,0.4,0.3,0.8,0.3,1.1v0.2c0,0.6-0.2,1.1-0.7,1.5c-0.4,0.4-0.9,0.6-1.5,0.6h-10.3C301.2,139.2,300.5,139,299.8,138.5
				z M294.2,116.1c2.9-2.9,4.4-7.4,4.5-13.4c0.1-4.4,0.2-7.3,0.2-8.8c0-1.7-0.1-4.6-0.2-8.8c-0.1-6-1.7-10.4-4.6-13.4
				c-2.9-3-6.8-4.4-11.6-4.4s-8.6,1.5-11.5,4.4c-2.9,2.9-4.4,7.4-4.6,13.4c-0.1,2.1-0.1,5.1-0.1,8.8c0,3.7,0,6.7,0.1,8.8
				c0.2,6,1.7,10.5,4.6,13.4c2.8,2.9,6.7,4.4,11.6,4.4C287.4,120.5,291.3,119,294.2,116.1z"/>
		</g>
		<g>
			<path class="st2" d="M288.9,125.2l-7.6-10.9c-0.2-0.4-0.3-0.8-0.3-1.1V113c0-0.6,0.2-1.1,0.7-1.5c0.4-0.4,0.9-0.6,1.5-0.6h10.3
				c0.9,0,1.7,0.2,2.3,0.7c0.6,0.5,1.2,1.1,1.7,1.8l4,5.5"/>
		</g>
		<g class="st1">
			<path class="st0" d="M200.5,165.9c-1.3-0.3-2.1-1.2-2.5-2.5c-0.3-0.9-0.4-2-0.4-3.4c0-1.3,0.1-2.9,0.4-4.9
				c0.1-1.1,0.3-2.3,0.5-3.5c-0.1,0.4-0.3,1.1-0.6,2c-1.1,3.3-1.9,5.6-2.6,7c-0.8,1.8-1.6,2.7-2.2,2.7c-2,0-3.5-1.3-4.4-3.9
				c-0.4-1.3-0.8-3-1.1-5.1c-0.4,2-0.6,3.7-0.6,5.2l-0.1,3.8l0,0.6l0,0.5c0,0.3-0.2,0.6-0.4,0.8c-0.1,0.1-0.3,0.2-0.5,0.2
				c-2.1-0.5-3.1-2.7-3.1-6.6c0-2.8,0.5-6.4,1.5-10.6c0.5-2,0.9-3.7,1.3-5.1c0.3-0.1,0.6-0.2,0.8-0.2c0.3,0,0.6,0,0.9,0.2
				c0.8,0.3,1.5,0.7,2.2,1.2c0.8,0.7,1.4,1.5,1.8,2.3c0.2,0.5,0.3,1,0.4,1.5c0,2,0.2,3.9,0.5,5.7c0.2,0.8,0.4,1.7,0.6,2.5
				c0.1-0.2,0.4-1.1,0.9-2.7c0.7-1.9,1.2-3.4,1.6-4.4c0,0,0-0.1,0-0.1c1.6-4.1,2.8-6.5,3.6-7.1c0.4-0.2,0.7-0.3,1-0.3
				c0.3,0,0.5,0,0.8,0.1c0.2-0.1,0.4-0.1,0.6-0.1c0.5,0,1,0.2,1.5,0.7c0.6,0.5,1,1.1,1.2,1.7c0.1,0.3,0.1,0.5,0.1,0.7
				c0,0.2-0.1,0.6-0.3,1.3c-0.5,1.5-1,3.1-1.3,4.7c-0.8,3.6-1.3,7.2-1.3,10.9l0,2c0,0.7,0.1,1.2,0.3,1.6c0.1,0.1,0.1,0.3,0.1,0.4
				c0,0.3-0.2,0.4-0.7,0.4C200.9,166,200.7,165.9,200.5,165.9z"/>
			<path class="st0" d="M210.6,166.7c-0.6,0-1.3-0.2-2.1-0.5c-0.8-0.4-1.4-0.8-2-1.3c-0.3-0.3-0.5-0.5-0.6-0.7
				c-0.7-0.8-1.2-1.7-1.6-2.7c-0.4-1.1-0.6-2.3-0.6-3.5c0-1.1,0.1-2.2,0.4-3.3c0.5-2,1.4-4.4,2.8-7.1c-0.1-0.3-0.2-0.5-0.2-0.8
				c0-0.5,0.1-0.9,0.4-1.4c0.5-0.8,1.3-1.5,2.4-2.2c1.3-0.8,2.7-1.1,4.1-1.1c1.1,0,2.1,0.3,2.9,0.8c1.1,0.7,2,1.9,2.6,3.6
				c0.4,1.2,0.6,2.5,0.6,3.9c0,1.8-0.2,3.6-0.7,5.4c-0.6,2.3-1.4,4.3-2.4,6.1c-1.1,1.9-2.3,3.2-3.5,4c-0.6,0.4-1.3,0.7-2,0.8H210.6z
				 M211.6,160.3c1-1.1,1.8-2.4,2.5-4c0.7-1.5,1.1-3.1,1.4-4.8c0.2-1,0.3-2,0.3-2.9c0-1.3-0.2-2.2-0.5-2.5c-0.2-0.2-0.5-0.3-0.8-0.3
				c-0.5,0-1.2,0.3-2.1,0.9c0,0.3,0.1,0.5,0.1,0.8c0,0.5-0.1,1-0.2,1.3c-0.2,0.5-0.5,1.1-0.9,1.8c-0.3,0.5-0.7,1.2-1,1.9
				c-0.5,1.1-1,2.3-1.3,3.5c-0.5,1.7-0.8,3.4-0.9,5.1v0.7c0,0.3,0,0.5,0,0.8C209.4,162.2,210.6,161.5,211.6,160.3z"/>
			<path class="st0" d="M226.9,166.4c-1.9,0-3.4-1.1-4.6-3.3c-0.9-1.7-1.3-3.6-1.3-5.7c0-1.1,0.1-2.3,0.4-3.4c0.4-2,1.1-4,2.1-6
				c1-1.8,2.1-3.4,3.4-4.7c1.7-1.8,3.4-2.7,4.9-2.7c0.2,0,0.4,0,0.6,0.1l0.3-0.8l0.4-0.4c0.4-0.4,0.9-0.5,1.4-0.5
				c0.4,0,0.8,0.1,1.2,0.3c0.5,0.3,0.9,0.6,1.1,1.1c0.1,0.2,0.1,0.3,0.1,0.5c0,0.3-0.3,1.4-1,3.3c-0.4,1.3-0.8,2.5-1.1,3.6
				c-0.4,1.4-0.6,2.6-0.6,3.6c0,0.4,0,0.8,0.1,1.2l0,0.2c0,0.2-0.1,0.4-0.4,0.5c-0.1,0.1-0.3,0.1-0.5,0.1c-2.1-0.2-3.1-1.5-3.1-4.1
				c0-1.1,0.2-2.6,0.6-4.2c-0.8,0.9-1.5,1.9-2.3,3.1c-1.2,1.9-2.1,3.9-2.7,6c-0.5,2-0.8,4.4-0.8,7c0,0.6,0,1,0.1,1.2
				c0.2,0.4,0.5,0.7,0.9,0.7c0.4,0,1-0.2,1.7-0.7c0.6-0.4,1.5-1,2.8-1.9c0,0,0.1-0.1,0.1-0.1c1.2-0.9,2.1-1.5,2.7-1.9
				c1.4-0.9,2.4-1.3,3.1-1.3c0.5,0,0.8,0.1,1,0.4c0.2,0.2,0.2,0.5,0.2,0.8c0,0.4-0.1,0.9-0.4,1.5c-0.4,0.7-1.4,1.7-3.2,3
				c-1.3,1-2.5,1.8-3.6,2.5c-1.4,0.8-2.6,1.1-3.6,1.2H226.9z"/>
			<path class="st0" d="M242.6,167.7c-0.8,0-1.4-0.3-1.9-0.9c-0.7-0.8-1.1-2.1-1.2-3.7c0-0.7-0.1-1.3-0.1-1.8
				c0-2.6,0.5-6.2,1.4-10.6c0.4-1.9,1-4.4,1.8-7.3l0.3-1.2l0.3-0.3c0.4-0.4,0.8-0.6,1.2-0.6c0.2,0,0.4,0,0.6,0.1
				c0.7,0.2,1.2,0.7,1.7,1.3c0.4,0.5,0.6,1,0.6,1.4c0,0.2-0.1,0.7-0.4,1.5c-1,3.1-1.7,6-2.3,8.6c1.8-0.1,3.7-0.4,5.9-0.9
				c0.5-3.2,1.1-6.4,1.8-9.7c0.3-1.3,0.5-2.4,0.6-3.3l0.3-0.5c0.2-0.3,0.5-0.5,0.8-0.6h0.1l0,0h0.2l0.1,0c0,0,0.2,0,0.3,0.1
				c0.6,0.3,1,0.8,1.4,1.5c0.3,0.7,0.5,1.2,0.5,1.8c0,0.2-0.6,3.4-1.7,9.4l0.4-0.1l0.4,0.1c0.6,0.2,1,0.5,1.2,1
				c0.2,0.3,0.3,0.6,0.3,0.8c0,0.3-0.2,0.6-0.5,0.7c-0.7,0.4-1.5,0.7-2.3,1c-1.3,7-2,10.8-2.2,11.4c-0.3,0.6-0.6,0.8-0.9,0.8
				c-0.1,0-0.2,0-0.3,0c-0.1,0-0.2,0-0.3,0c-0.2,0-0.4-0.1-0.6-0.2c-0.4-0.2-0.6-0.6-0.7-1c0-0.4-0.1-0.9-0.1-1.6
				c0-2,0.2-4.7,0.7-7.9c-2.4,0.7-4.5,1.1-6.1,1.1c-0.4,2.6-0.6,5.1-0.7,7.4l0,0.1c0,0.1,0,0.2,0,0.3c0,0,0,0,0,0.1
				c0,0.1,0.1,0.3,0.1,0.4c0.1,0.2,0.1,0.3,0.2,0.4c0.1,0.1,0.1,0.2,0.1,0.3c0,0.2-0.1,0.3-0.3,0.4c-0.2,0.1-0.3,0.1-0.4,0.1H242.6z
				"/>
			<path class="st0" d="M258.6,165.5c-0.4-1.1-0.6-2.5-0.6-4.3c0-2.3,0.3-4.9,0.8-8c0.3-1.5,0.6-3,1-4.5c0.3-1.3,0.6-2.1,0.8-2.5
				c0.3-0.5,0.7-0.7,1.2-0.7c0.4,0,0.7,0.1,1,0.2c0.5,0.3,1,0.7,1.4,1.2c0.3,0.4,0.4,0.8,0.4,1.1c0,0.1,0,0.2-0.1,0.4l-1.1,6.3
				c-0.7,4-1.1,6.8-1.3,8.4c0,0.5-0.1,1.1-0.1,1.5c0,0.5,0,1.2,0.2,2.1c0,0,0,0.1,0,0.1c0,0.2,0,0.4,0,0.6c0,0.1,0,0.1-0.1,0.2
				c-0.4,0.1-0.8,0.2-1.1,0.2C260,167.7,259.1,167,258.6,165.5z M262.8,143.5c-0.8-0.3-1.3-0.9-1.3-1.8c0-0.2,0-0.3,0-0.4l0.5-2.9
				c0.1-0.5,0.2-0.9,0.4-1.2c0.3-0.5,0.6-0.8,0.9-0.8c0.3,0,0.8,0.1,1.3,0.4c0.3,0.2,0.7,0.4,1.4,0.9l0.5,0.4c0.3,0.3,0.4,0.6,0.4,1
				c0,0.2-0.1,0.5-0.2,0.7c-0.2,0.3-0.3,0.7-0.5,1c-0.7,1.3-1.1,2.1-1.1,2.3c0,0.3-0.2,0.4-0.7,0.5h-0.1c-0.2,0-0.3,0-0.4,0
				C263.6,143.7,263.2,143.6,262.8,143.5z"/>
			<path class="st0" d="M268.9,166.7c-0.6-0.4-1.2-0.9-1.9-1.7c-0.3-0.3-0.6-0.7-0.9-1c-0.6-0.8-1-2-1-3.8c0-1.3,0.2-2.9,0.5-4.7
				c0.3-1.5,0.7-3.4,1.3-5.6c0.4-1.6,0.9-3.3,1.5-5.1c0.3-1.1,0.6-1.9,0.8-2.7l0.2-0.3c0.4-0.4,0.8-0.5,1.3-0.5c0.5,0,1,0.2,1.5,0.6
				c0.6,0.4,1,0.9,1.1,1.5c0.1,0.2,0.1,0.4,0.1,0.6c0,0.4-0.4,1.8-1.1,4.2c-0.6,2.1-1.2,4.1-1.7,6c-0.6,2.5-1,5-1.3,7.5
				c0,1.3,0.2,2,0.7,2c0.3,0,0.6-0.2,1.1-0.5c1.2-0.7,2.7-1.9,4.5-3.7l0.9-0.9c0.3-0.2,0.5-0.2,0.7-0.2c0.3,0,0.5,0.1,0.6,0.4
				s0.2,0.7,0.2,1.2c0,0.6-0.1,1.2-0.4,1.9c-0.3,0.9-0.8,1.5-1.5,2.1c-0.4,0.3-0.9,0.7-1.5,1.3c-0.9,0.8-1.6,1.4-2,1.6
				c-0.5,0.3-1.1,0.5-1.7,0.5C270.4,167.4,269.7,167.2,268.9,166.7z"/>
			<path class="st0" d="M278.6,167.4c-0.2-0.3-0.4-0.7-0.4-1.2c0-0.4,0.1-0.9,0.3-1.3c0.3-0.7,0.7-1.2,1.3-1.5l0.2-0.1
				c-0.2-0.5-0.3-0.9-0.4-1.4l0-0.6c0.6-2.3,1.4-4.9,2.4-7.6c0.9-2.6,1.9-4.9,3-7c1.1-2.1,2-3.8,2.9-5c0.9-1.2,1.6-1.8,2.2-1.8h0.1
				c0.1-0.2,0.3-0.4,0.6-0.6c0.2-0.1,0.4-0.2,0.7-0.2c0.5,0,1.1,0.2,1.6,0.7c0.6,0.5,1.1,1,1.3,1.6c0.1,0.3,0.2,0.5,0.2,0.7
				c0,0.1-0.1,0.6-0.3,1.4c-0.4,2.1-0.8,4.2-1.1,6.2c-0.5,3.1-0.8,6.2-0.9,9.3c0.8,0.1,1.5,0.4,2.2,0.9c0.6,0.4,0.8,0.7,0.8,0.9
				c0,0.1-0.1,0.2-0.3,0.3c-0.3,0.1-0.6,0.2-0.9,0.3c-0.5,0.1-1.1,0.2-1.8,0.4l0.1,1.9l0,0.1c0,0,0,0,0,0l0.1,0.3
				c0,0.1,0.1,0.2,0.1,0.4c0,0,0,0.1,0,0.1c0,0,0,0.1,0.1,0.1c0.1,0.1,0.1,0.2,0.2,0.3c0.1,0.1,0.1,0.3,0.1,0.4
				c0,0.2-0.1,0.3-0.3,0.4c-0.2,0.1-0.4,0.1-0.7,0.1c-0.6,0-1.2-0.2-1.7-0.6c-0.6-0.5-1.1-1.3-1.5-2.4c-2.5,1-4.9,2.3-7,3.8
				l-1.8,1.2c-0.2,0.1-0.5,0.1-0.7,0.1C279.1,167.9,278.8,167.7,278.6,167.4z M288.4,159.6c-0.1-0.9-0.1-2.1-0.1-3.5
				c0-1.6,0.1-3.5,0.3-5.6c-1.9,4.4-3.3,7.9-4.3,10.6C285.8,160.6,287.2,160.1,288.4,159.6z"/>
			<path class="st0" d="M297.8,167.5c-1.1-0.4-1.9-0.9-2.5-1.6c-0.4-0.5-0.6-1.2-0.6-2v-0.2c0-0.7,0.1-1.3,0.3-2
				c0.2-0.7,0.4-1.1,0.5-1.1c0.1,0,0.1,0,0.2,0c0.1,0,0.2,0,0.4,0.1l0,0c0.2,1.5,0.8,2.6,1.6,3.1c0.5,0.4,1.1,0.5,1.7,0.5
				c0.8,0,1.6-0.2,2.4-0.6c1-0.4,1.8-1,2.4-1.7c0.5-0.6,0.8-1.1,0.8-1.5c0-0.3-0.2-0.6-0.5-0.9c-0.4-0.3-1-0.6-2-1.1
				c-1.1-0.5-2-1-2.6-1.3c-1-0.6-1.8-1.3-2.3-2.1c-0.7-1-1.1-2-1.1-3c0-0.7,0.2-1.5,0.5-2.3c0.5-1.2,1.4-2.5,2.6-3.8
				c1.1-1.2,2.3-2.2,3.7-3.1c1.4-0.9,2.6-1.5,3.8-1.9c0.2,0,0.5,0,0.7,0c0.3,0,0.5,0,0.8,0.1c0.2-0.2,0.4-0.3,0.7-0.4
				s0.6-0.2,0.8-0.2c0.4,0,0.9,0.1,1.4,0.4c0.5,0.3,0.9,0.7,1,1.1c0.1,0.1,0.1,0.3,0.1,0.4c0,0.3-0.4,1.4-1.3,3.2
				c-0.7,1.5-1.1,2.6-1.5,3.4c-0.7,1.7-1,3-1,4c0,0.2,0,0.4,0,0.7l0,0.1c0,0.4-0.3,0.6-0.9,0.6c-1.2-0.2-2.1-0.8-2.5-1.7
				c-0.2-0.4-0.3-0.8-0.3-1.1c0-0.9,0-1.6,0.2-2.2c0.1-0.6,0.3-1.3,0.5-1.9c-2.3,2.3-3.8,4-4.3,5.1c-0.2,0.4-0.4,0.7-0.4,0.9
				c0,0.5,0.1,0.8,0.2,1c0.2,0.3,0.8,0.8,1.8,1.3c1,0.6,1.9,1.1,2.7,1.8c1.3,1.1,2.1,2.1,2.4,3.2c0.2,0.5,0.3,1.1,0.3,1.5
				c0,0.7-0.2,1.4-0.6,2.1c-0.6,1.1-1.5,1.9-2.7,2.7c-0.6,0.4-1.2,0.6-1.9,0.8c-0.9,0.3-1.7,0.4-2.6,0.4
				C299.9,168.1,298.9,167.9,297.8,167.5z"/>
		</g>
	</g>
	<path class="st2" d="M159.5,53.5h-92c-3.8,0-7,3.1-7,7v15.4v15.2v31.1v15.2v19.5c0,3.8,3.1,7,7,7h60.8h11.4h19.8c3.8,0,7-3.1,7-7
		V60.5C166.4,56.6,163.3,53.5,159.5,53.5z M121.5,118.1c-2.8,2.5-6.9,3.8-12.3,3.8h-36V91.8h36.1c5.5,0,9.7,1.3,12.4,4
		c2.7,2.7,4.1,6.4,4.1,11.2C125.7,111.9,124.3,115.6,121.5,118.1z M73.2,137.5H110c0.4,0,0.8,0,1.2,0l7.6,14H73.2V137.5z M154,151.4
		h-16.9l-9.5-16.8c3.3-1.2,6.2-2.8,8.7-4.9c6.4-5.1,9.6-12.7,9.6-22.6c0-10.1-3.2-17.7-9.6-23c-6.4-5.3-15.1-7.9-26.3-7.9H73.2v-9.6
		H154V151.4z"/>
</g>
</svg>
