<?xml version="1.0" encoding="utf-8"?>
<!-- Generator: Adobe Illustrator 23.0.3, SVG Export Plug-In . SVG Version: 6.00 Build 0)  -->
<svg version="1.1" id="Capa_1" xmlns="http://www.w3.org/2000/svg" xmlns:xlink="http://www.w3.org/1999/xlink" x="0px" y="0px"
	 viewBox="0 0 381 216.7" style="enable-background:new 0 0 381 216.7;" xml:space="preserve">
<g>
	<path d="M35.4,74.6c4.6-0.8,10.7-1.4,18.5-1.4c9.5,0,16.5,2.2,20.9,6.2c4.1,3.5,6.5,9,6.5,15.6c0,6.7-2,12.1-5.8,15.9
		c-5.1,5.4-13.4,8.2-22.8,8.2c-2.9,0-5.5-0.1-7.7-0.7v29.9h-9.6V74.6z M45,110.5c2.1,0.6,4.8,0.8,8,0.8c11.6,0,18.7-5.6,18.7-15.9
		c0-9.8-7-14.6-17.6-14.6c-4.2,0-7.4,0.3-9.1,0.8V110.5z"/>
	<path d="M103,79.7c0.1,3.3-2.3,6-6.2,6c-3.4,0-5.9-2.7-5.9-6c0-3.4,2.5-6.1,6.1-6.1C100.7,73.6,103,76.2,103,79.7z M92.1,148.3
		V94.7h9.7v53.5H92.1z"/>
	<path d="M166.5,121c0,19.8-13.7,28.4-26.7,28.4c-14.5,0-25.7-10.6-25.7-27.5c0-17.9,11.7-28.4,26.5-28.4
		C156.1,93.5,166.5,104.7,166.5,121z M124,121.6c0,11.7,6.7,20.6,16.3,20.6c9.3,0,16.3-8.7,16.3-20.8c0-9.1-4.5-20.6-16-20.6
		C129,100.8,124,111.4,124,121.6z"/>
	<path d="M202.5,74.6c4.6-0.8,10.7-1.4,18.5-1.4c9.5,0,16.5,2.2,20.9,6.2c4.1,3.5,6.5,9,6.5,15.6c0,6.7-2,12.1-5.8,15.9
		c-5.1,5.4-13.4,8.2-22.8,8.2c-2.9,0-5.5-0.1-7.7-0.7v29.9h-9.6V74.6z M212.2,110.5c2.1,0.6,4.8,0.8,8,0.8
		c11.6,0,18.7-5.6,18.7-15.9c0-9.8-7-14.6-17.6-14.6c-4.2,0-7.4,0.3-9.1,0.8V110.5z"/>
	<path d="M270.1,79.7c0.1,3.3-2.3,6-6.2,6c-3.4,0-5.9-2.7-5.9-6c0-3.4,2.5-6.1,6.1-6.1C267.8,73.6,270.1,76.2,270.1,79.7z
		 M259.3,148.3V94.7h9.7v53.5H259.3z"/>
	<path d="M333.6,121c0,19.8-13.7,28.4-26.7,28.4c-14.5,0-25.7-10.6-25.7-27.5c0-17.9,11.7-28.4,26.5-28.4
		C323.2,93.5,333.6,104.7,333.6,121z M291.1,121.6c0,11.7,6.7,20.6,16.3,20.6c9.3,0,16.3-8.7,16.3-20.8c0-9.1-4.5-20.6-16-20.6
		C296.1,100.8,291.1,111.4,291.1,121.6z"/>
</g>
</svg>
